<svg width="320" height="36" viewBox="0 0 320 36" fill="none" xmlns="http://www.w3.org/2000/svg">
<path d="M96.8396 4.32607C92.5354 6.29883 90.6523 8.2716 88.7692 12.7552C85.81 19.9288 88.3208 29.5236 94.0598 33.1105C98.2743 35.6213 105.986 35.6213 109.394 32.9311C111.994 30.8687 114.325 26.2955 114.325 23.2467C114.325 20.2875 112.801 21.1842 112.173 24.5917C111.815 26.2955 110.559 28.8959 109.304 30.4204C107.421 32.5725 106.255 33.1105 103.565 33.1105C97.4673 33.1105 95.2255 29.165 95.3152 18.4941C95.3152 14.6382 95.7635 10.334 96.3016 8.98897C99.44 1.4566 108.228 4.14673 110.739 13.4725C112.263 19.1218 113.429 17.5077 113.429 9.79601C113.429 2.62232 112.622 1.00824 110.739 4.41574C109.842 6.11949 109.752 6.11949 106.883 4.41574C103.296 2.17397 101.413 2.17397 96.8396 4.32607Z" fill="white"/>
<path d="M4.03003 10.7824C4.03003 16.1626 4.29904 17.956 5.19575 17.687C5.73378 17.418 6.36148 16.342 6.54082 15.0866C7.25819 8.80959 9.58964 5.31242 12.9971 5.31242C14.7906 5.31242 14.7906 5.76078 14.6112 18.9424L14.3422 32.6621L11.6521 32.9311C10.2173 33.1104 8.60325 33.6485 8.1549 34.0968C7.61687 34.5452 11.4727 34.9039 18.1981 34.9039C24.3854 34.9039 29.1379 34.5452 29.1379 34.0968C29.1379 33.5588 27.6135 33.1104 25.8201 32.9311L22.4126 32.6621L22.1436 18.9424L21.8746 5.31242H24.206C26.8962 5.31242 29.7656 9.43729 30.5727 14.4589C31.1107 17.5077 31.4694 17.8664 33.7112 17.8664H36.3116V25.4884C36.3116 32.4828 36.1323 33.1104 34.5182 33.1104C33.5318 33.1104 32.7248 33.4691 32.7248 34.0072C32.7248 34.5452 40.1675 34.9039 53.3491 34.9039H73.9735V30.4203C73.9735 27.9095 73.6148 25.9368 73.0768 25.9368C72.6284 25.9368 72.1801 26.6541 72.1801 27.5508C72.1801 30.5997 69.5796 33.1104 66.2618 33.1104C63.3026 33.1104 63.2129 33.0208 63.2129 29.4339C63.2129 26.4748 63.482 25.8471 64.827 26.1161C65.6341 26.2954 66.4411 27.2818 66.6204 28.4476C67.2481 32.5724 68.5932 30.241 68.5932 25.0401C68.5932 19.8391 67.2481 17.5077 66.6204 21.6326C66.4411 22.7983 65.6341 23.7847 64.827 23.964C63.482 24.233 63.2129 23.6053 63.2129 21.0049C63.2129 17.7767 63.2129 17.7767 66.6204 18.0457C69.4899 18.3147 70.0279 18.6734 70.835 21.1842C72.0007 25.3987 73.0768 24.8607 73.0768 20.1081V16.0729H52.9008H32.7248V9.79597V3.519H18.3774H4.03003V10.7824ZM47.6102 21.1842C47.7895 24.0537 47.6998 24.1433 44.2923 24.1433C40.8848 24.1433 40.7952 24.0537 40.7952 20.9152C40.7952 17.7767 40.8848 17.7767 44.113 18.0457C47.0721 18.3147 47.4308 18.5837 47.6102 21.1842ZM58.7294 25.4884V33.1104H55.5909H52.4524V25.4884V17.8664H55.5909H58.7294V25.4884ZM47.2515 29.0753C47.6998 32.9311 47.5205 33.1104 43.7543 33.1104C40.8848 33.1104 40.7952 33.0208 40.7952 29.5236C40.7952 26.0264 40.8848 25.9368 43.844 25.9368C46.6238 25.9368 46.8928 26.2058 47.2515 29.0753Z" fill="white"/>
<path d="M219.241 10.7824C219.241 16.1626 219.51 17.956 220.406 17.687C220.944 17.418 221.572 16.342 221.752 15.0866C222.469 8.80959 224.8 5.31242 228.208 5.31242C230.001 5.31242 230.001 5.76078 229.822 18.9424L229.553 32.6621L226.863 32.9311C225.428 33.1104 223.814 33.6485 223.366 34.0968C222.828 34.5452 226.683 34.9039 233.409 34.9039C239.596 34.9039 244.349 34.5452 244.349 34.0968C244.349 33.5588 242.824 33.1104 241.031 32.9311L237.623 32.6621L237.354 18.9424L237.085 5.31242H239.417C242.107 5.31242 244.797 9.25795 245.694 14.4589C246.232 17.5077 246.59 17.8664 248.922 17.8664H251.522V25.4884C251.522 32.4828 251.343 33.1104 249.729 33.1104C248.743 33.1104 247.935 33.4691 247.935 34.0072C247.935 34.5452 251.791 34.9039 257.799 34.9039C263.807 34.9039 267.663 34.5452 267.663 34.0072C267.663 33.4691 267.125 33.1104 266.408 33.1104C264.704 33.1104 264.076 31.048 264.166 25.6678V21.0049L266.677 27.7302L269.098 34.4555H285.149H301.11L301.379 30.6893C301.738 26.2954 300.393 24.771 299.496 28.4476C298.6 32.0344 297.344 33.1104 294.026 33.1104C291.067 33.1104 290.978 33.0208 290.978 29.5236C290.978 27.5508 291.336 25.9368 291.695 25.9368C292.95 25.9368 294.564 28.0889 294.564 29.7926C294.564 30.6893 295.013 31.1377 295.461 30.8687C296.537 30.1513 296.627 19.6598 295.551 19.6598C295.102 19.6598 294.475 20.6462 294.206 21.9016C293.309 25.3987 290.978 24.771 290.978 21.0049C290.978 18.0457 291.157 17.8664 294.026 17.8664C296.806 17.8664 297.255 18.2251 298.241 21.0049C299.855 25.3091 300.841 24.9504 300.841 20.1081V16.0729H287.929H274.926L273.402 21.5429C272.595 24.502 271.609 26.5645 271.25 26.2058C270.891 25.8471 269.905 23.3363 268.918 20.7358L267.304 16.0729H257.62H247.935V9.79597V3.519H233.588H219.241V10.7824ZM262.283 25.4884V33.1104H259.144H256.006V25.4884V17.8664H259.144H262.283V25.4884ZM285.597 25.4884V33.1104H282.907H280.217V25.4884V17.8664H282.907H285.597V25.4884ZM275.016 27.9095C274.747 31.9447 274.299 33.0208 272.954 33.3795C272.057 33.6485 271.25 33.7381 271.25 33.6485C271.25 33.5588 271.878 31.4067 272.685 28.9856C273.492 26.5645 274.299 24.0537 274.478 23.3363C275.195 21.0945 275.375 22.7086 275.016 27.9095Z" fill="white"/>
<path d="M115.222 16.9697C115.222 17.418 115.85 17.8664 116.567 17.8664C117.643 17.8664 117.912 19.3011 117.912 25.4884C117.912 31.4964 117.643 33.1104 116.657 33.1104C115.94 33.1104 115.043 33.4691 114.774 34.0072C114.415 34.5452 116.567 34.9039 120.513 34.9039C124.01 34.9039 126.879 34.5452 126.879 34.0968C126.879 33.6485 126.072 33.1104 125.086 32.9311C124.01 32.7518 123.203 32.3931 123.293 31.9447C123.293 31.586 123.293 30.0616 123.293 28.5372C123.293 26.2058 123.562 25.8471 125.355 26.1161C126.969 26.2954 127.417 27.1025 127.776 30.4203C128.224 34.1865 128.404 34.4555 130.915 34.4555C133.246 34.4555 133.605 34.0968 133.874 31.8551C134.053 30.3306 133.874 29.5236 133.336 29.8823C132.798 30.1513 131.811 29.2546 131.094 27.8199C129.928 25.3987 129.928 25.04 131.542 23.426C133.784 21.2739 133.067 18.4941 129.928 17.149C127.148 15.8039 115.222 15.7143 115.222 16.9697ZM128.224 19.5701C129.032 22.0809 127.776 24.1433 125.445 24.1433C123.562 24.1433 123.293 23.695 123.293 21.0049C123.293 18.3147 123.562 17.8664 125.445 17.8664C126.79 17.8664 127.866 18.4941 128.224 19.5701Z" fill="white"/>
<path d="M133.605 16.9697C133.874 17.418 134.681 17.8664 135.308 17.8664C137.192 17.8664 142.123 26.6541 142.123 30.0616C142.123 32.4828 141.765 33.1104 140.42 33.1104C139.433 33.1104 138.357 33.4691 138.088 34.0072C137.73 34.5452 140.061 34.9039 144.365 34.9039C148.669 34.9039 151.001 34.5452 150.642 34.0072C150.373 33.4691 149.297 33.1104 148.311 33.1104C145.531 33.1104 146.069 27.2818 149.387 22.0809C151.629 18.4044 152.436 17.7767 154.498 18.0457C156.919 18.3147 156.919 18.4044 157.188 25.6677C157.457 32.6621 157.367 33.1104 155.574 33.1104C154.588 33.1104 153.781 33.4691 153.781 34.0072C153.781 34.5452 156.291 34.9039 159.609 34.9039C162.927 34.9039 165.438 34.5452 165.438 34.0072C165.438 33.4691 164.631 33.1104 163.644 33.1104C162.21 33.1104 161.851 32.4828 161.851 29.972C161.851 27.0128 162.03 26.8335 164.81 26.8335C166.424 26.8335 168.576 26.2058 169.563 25.4884C170.639 24.771 171.715 24.4124 171.894 24.6814C172.163 24.9504 172.701 23.964 173.06 22.6189C173.777 19.5701 175.122 17.8664 176.736 17.8664C177.723 17.8664 177.992 19.5701 177.992 25.4884C177.992 32.3931 177.812 33.1104 176.288 33.1104C175.302 33.1104 174.226 33.5588 173.957 34.0072C173.598 34.5452 175.929 34.9039 180.234 34.9039C184.538 34.9039 186.869 34.5452 186.511 34.0072C186.242 33.5588 185.166 33.1104 184.179 33.1104C182.655 33.1104 182.475 32.3931 182.475 25.4884C182.475 21.2739 182.834 17.8664 183.282 17.8664C184.538 17.8664 186.959 21.5429 186.959 23.426C186.959 24.3227 187.318 25.0401 187.676 25.0401C188.125 25.0401 188.932 26.6541 189.559 28.6269C190.904 33.0208 193.415 34.9039 198.257 34.9039C201.396 34.9039 202.472 34.4555 204.355 32.1241C207.763 28.0889 207.673 22.2602 204.086 18.6734C199.782 14.3692 193.864 15.2659 190.546 20.8255L188.752 23.695V19.8391V16.0729H180.234C173.239 16.0729 171.715 16.342 171.715 17.418C171.715 19.1218 170.908 19.1218 168.666 17.418C167.321 16.4316 164.272 16.0729 156.74 16.0729C147.504 16.0729 144.365 16.7903 147.952 18.2251C149.207 18.6734 149.207 19.0321 147.952 21.4532C145.89 25.3987 145.531 25.2194 142.303 18.4941C142.123 18.1354 142.572 17.8664 143.379 17.8664C144.186 17.8664 144.814 17.418 144.814 16.9697C144.814 16.4316 142.213 16.0729 138.895 16.0729C135.219 16.0729 133.246 16.4316 133.605 16.9697ZM201.037 19.6598C203.279 24.0537 202.024 32.5724 199.065 33.6485C196.285 34.7245 194.133 31.4067 194.133 26.0264C194.133 17.956 198.257 14.1899 201.037 19.6598ZM166.873 20.2875C167.59 23.157 166.335 25.3987 163.734 25.7574C162.03 26.0264 161.851 25.6677 161.851 21.9912C161.851 18.2251 162.03 17.8664 164.093 17.8664C165.707 17.8664 166.424 18.4941 166.873 20.2875Z" fill="white"/>
<path d="M303.083 17.8664C302.007 19.1218 301.648 20.2875 302.096 22.081C302.455 23.426 302.635 27.0129 302.635 29.8823C302.545 34.6349 302.635 35.0833 303.98 34.0072C305.056 33.1105 305.683 33.1105 306.401 33.8279C308.015 35.442 312.947 35.0833 314.561 33.2898C316.175 31.5861 316.623 26.3852 315.278 25.5781C314.919 25.3091 314.74 23.0673 315.009 20.5566C315.368 16.1627 314.74 15.0866 312.767 17.0594C312.05 17.7768 311.602 17.7768 311.243 17.0594C310.167 15.3556 304.876 15.8937 303.083 17.8664ZM309.36 17.5077C310.077 17.8664 311.422 19.3012 312.14 20.8256L313.574 23.5157L310.167 22.9777C305.773 22.2603 303.711 20.2875 305.325 18.4044C306.58 16.7904 307.208 16.7007 309.36 17.5077ZM313.126 30.0617C313.664 31.5861 311.871 34.0072 310.077 34.0072C308.194 34.0072 304.428 29.8823 304.428 27.8199C304.428 26.1162 304.607 26.1162 308.553 27.4612C310.795 28.1786 312.857 29.434 313.126 30.0617Z" fill="white"/>
</svg>
