<svg width="233" height="40" viewBox="0 0 233 40" fill="none" xmlns="http://www.w3.org/2000/svg">
<g clip-path="url(#clip0_1042_381)">
<path d="M36.4089 22.0283C35.9413 26.3291 34.0024 30.3215 30.9362 33.2975C27.8699 36.2735 23.8744 38.0408 19.6578 38.2863C15.4412 38.5317 11.276 37.2392 7.90063 34.6382C4.52525 32.0372 2.15767 28.2955 1.21767 24.0764C0.277676 19.8574 0.825958 15.4337 2.76533 11.5894C4.70469 7.74506 7.90987 4.72856 11.8126 3.07463C15.7154 1.42071 20.0636 1.23619 24.0865 2.55382C28.1093 3.87144 31.5468 6.60608 33.7898 10.2729L28.1845 14.3525C25.6693 10.5415 22.1602 8.71659 18.5982 8.71659C12.7836 8.71659 8.22617 13.7622 8.22617 19.9888C8.22617 26.2156 12.8359 31.2075 18.5982 31.2075C23.7845 31.2075 28.1317 27.3415 29.1276 22.0286L36.4089 22.0283Z" fill="#FAFAFA"/>
<path d="M63.8761 25.8089C63.8761 32.6262 58.2709 38.3157 51.5658 38.3157C49.1562 38.2946 46.8066 37.5432 44.8131 36.1561C42.8195 34.769 41.2712 32.8083 40.3634 30.5211C39.4554 28.2339 39.2286 25.7225 39.7113 23.3033C40.194 20.8843 41.3646 18.6658 43.076 16.9271C44.7871 15.1887 46.9621 14.0081 49.3271 13.5342C51.692 13.0602 54.1408 13.3141 56.3651 14.2639C58.5894 15.2137 60.4897 16.8168 61.8263 18.8712C63.1629 20.9258 63.8761 23.3396 63.8761 25.8089ZM57.1188 25.8089C57.1454 25.0448 57.0192 24.2834 56.7476 23.5712C56.4761 22.8592 56.0652 22.2115 55.5402 21.6685C55.0151 21.1253 54.387 20.6981 53.6948 20.4131C53.0025 20.1283 52.2606 19.9915 51.5147 20.0117C48.5289 20.0117 46.0668 22.4272 46.0668 25.8089C46.0668 29.2442 48.5289 31.606 51.5147 31.606C52.2604 31.6262 53.0024 31.4894 53.6947 31.2044C54.3869 30.9195 55.015 30.4923 55.5399 29.949C56.0649 29.406 56.4758 28.7584 56.7473 28.0463C57.0187 27.3343 57.1455 26.5728 57.1188 25.8089Z" fill="#FAFAFA"/>
<path d="M66.9255 6.27047C66.9255 4.39195 68.7064 2.56665 70.7494 2.56665C72.9494 2.56665 74.6785 4.33792 74.6785 6.27047C74.6557 7.31633 74.2296 8.31037 73.4931 9.03494C72.7568 9.75951 71.7702 10.1556 70.7494 10.1364C69.7504 10.1153 68.7974 9.7028 68.0861 8.98373C67.3749 8.26467 66.9594 7.29369 66.9255 6.27047ZM74.0496 38.3157H67.5016V14.322H74.102V38.3157H74.0496Z" fill="#FAFAFA"/>
<path d="M101.352 38.3161H94.8063V26.3441C94.8063 22.4781 92.6064 20.5469 89.9346 20.5469C87.001 20.5469 84.3292 22.4795 84.3292 26.3441V38.3161H77.7288V14.3223H84.3292V15.9851C85.6387 14.4819 88.3629 13.7844 90.5106 13.7844C96.9017 13.7844 101.354 19.3667 101.354 26.2913L101.352 38.3161Z" fill="#FAFAFA"/>
<path d="M104.41 38.3145V2.93921H116.406C124.525 2.93921 130.707 9.16584 130.707 16.8415C130.707 25.9132 124.84 32.1931 115.672 32.1931H111.534V38.3124L104.41 38.3145ZM115.515 25.5396C120.596 25.5396 123.478 22.3723 123.478 17.4336C123.478 13.1394 120.911 9.59651 115.934 9.59651H111.587V25.5386L115.515 25.5396Z" fill="#FAFAFA"/>
<path d="M156.707 33.3234C154.715 36.3829 150.577 38.3155 146.439 38.3155C139.42 38.3155 133.762 32.6795 133.762 25.8086C133.753 24.1683 134.061 22.5423 134.668 21.0244C135.275 19.5065 136.169 18.1267 137.299 16.9642C138.428 15.8018 139.771 14.8797 141.25 14.2512C142.728 13.6226 144.314 13.2999 145.915 13.3017C148.475 13.2907 150.975 14.096 153.068 15.606C155.162 17.1159 156.745 19.2558 157.598 21.7289L144.553 31.3372C145.179 31.5389 145.835 31.6295 146.491 31.6059C148.482 31.6059 150.473 30.9079 151.522 29.1902L156.707 33.3234ZM140.572 27.4207L149.11 21.1923C148.175 20.4647 147.035 20.0689 145.862 20.0649C142.876 20.0649 140.414 22.4806 140.414 25.8622C140.412 26.3854 140.465 26.9074 140.572 27.419V27.4207Z" fill="#FAFAFA"/>
<path d="M184.434 2.40259V37.7778H177.832V36.0603C176.837 37.4558 174.27 38.3146 172.122 38.3146C165.732 38.3146 160.651 32.6786 160.651 25.8077C160.651 18.8834 165.889 13.3008 172.122 13.3008C174.218 13.3008 176.785 14.3205 177.832 15.5014V2.40259H184.434ZM178.145 25.806C178.145 22.4243 175.892 20.0088 172.802 20.0088C169.816 20.0088 167.354 22.4243 167.354 25.806C167.354 29.2413 169.816 31.6033 172.802 31.6033C175.842 31.6036 178.148 29.1877 178.148 25.806H178.145Z" fill="#FAFAFA"/>
<path d="M187.486 6.27047C187.486 4.39195 189.268 2.56665 191.31 2.56665C193.511 2.56665 195.24 4.33792 195.24 6.27047C195.213 7.30534 194.791 8.28839 194.068 9.01046C193.344 9.73251 192.374 10.1365 191.363 10.1365C190.353 10.1365 189.382 9.73251 188.659 9.01046C187.934 8.28839 187.514 7.30534 187.486 6.27047ZM194.611 38.3157H188.01V14.322H194.611V38.3157Z" fill="#FAFAFA"/>
<path d="M222.073 13.7863V37.78H215.471V36.061C214.478 37.4566 211.91 38.3154 209.761 38.3154C203.371 38.3154 198.29 32.6795 198.29 25.8085C198.29 18.8843 203.528 13.3016 209.761 13.3016C211.857 13.3016 214.424 14.3212 215.471 15.5022V13.8395H222.073V13.7863ZM215.734 25.8101C215.734 22.4284 213.482 20.0129 210.39 20.0129C207.405 20.0129 204.943 22.4284 204.943 25.8101C204.943 29.2454 207.405 31.6074 210.39 31.6074C213.481 31.6074 215.734 29.1919 215.734 25.8101Z" fill="#FAFAFA"/>
<path d="M231.727 31.5517H225.125V38.315H231.727V31.5517Z" fill="#FAFAFA"/>
</g>
<defs>
<clipPath id="clip0_1042_381">
<rect width="232" height="38.1579" fill="white" transform="translate(0.769287 0.921021)"/>
</clipPath>
</defs>
</svg>
