<svg width="217" height="52" viewBox="0 0 217 52" fill="none" xmlns="http://www.w3.org/2000/svg">
<g clip-path="url(#clip0_1042_448)">
<path d="M14.3354 5.21642C17.7748 4.77167 20.9269 2.80237 23.0108 0.0542948C24.3935 0.10479 25.8172 -0.0505785 27.1747 0.126153C29.1518 2.76937 32.1562 4.62408 35.417 5.1601C37.4251 5.51357 39.4993 5.3446 41.4667 4.83965C40.785 9.46186 38.5807 13.7792 35.4773 17.2419C33.7138 19.2559 31.659 20.998 29.478 22.5459C30.2336 21.5068 30.6976 20.2387 30.5986 18.9413C30.5578 16.7021 28.9576 14.6434 26.8543 13.9326C24.5315 13.08 21.7251 14.088 20.422 16.1777C19.2975 17.8382 19.2431 20.1201 20.2297 21.8564C20.6589 22.6468 21.3328 23.2644 22.0301 23.814C21.8533 24.8123 21.7542 25.8183 21.5911 26.8185C16.0639 29.0519 10.1055 30.2754 4.13736 30.2055C1.10378 22.9459 0.451226 14.8803 1.24361 7.10998C3.25952 6.19912 5.29291 5.32712 7.32241 4.44735C9.56944 5.19895 11.9757 5.57377 14.3354 5.21642Z" fill="white"/>
<path d="M187.282 12.2662C188.704 12.1477 190.152 12.1457 191.573 12.2662C191.556 13.5829 191.567 14.8996 191.566 16.2163C190.14 16.2163 188.715 16.2163 187.289 16.2163C187.285 14.8996 187.297 13.5829 187.282 12.2662Z" fill="white"/>
<path d="M151.352 12.4546C154.201 12.4643 157.052 12.4565 159.904 12.4585C161.337 12.4624 162.807 12.4157 164.186 12.876C166.144 13.4587 167.794 14.8919 168.719 16.7039C170.096 19.3743 170.298 22.4934 169.94 25.4318C169.56 28.1119 168.582 30.8775 166.476 32.6875C165.049 33.9382 163.14 34.5442 161.261 34.5616C157.959 34.6005 154.656 34.5558 151.354 34.5849C151.354 27.2069 151.358 19.8308 151.352 12.4546ZM155.855 16.2359C155.834 21.0795 155.849 25.9251 155.846 30.7706C157.393 30.8037 158.94 30.7726 160.487 30.7881C161.844 30.8444 163.174 30.1201 163.95 29.0208C165.12 27.4088 165.394 25.3444 165.429 23.4042C165.398 21.5107 165.27 19.4656 164.122 17.875C163.309 16.7253 161.862 16.2222 160.498 16.2281C158.948 16.232 157.4 16.2222 155.855 16.2359Z" fill="white"/>
<path d="M194.228 12.4779C195.655 12.4915 197.082 12.476 198.51 12.4857C198.484 19.856 198.551 27.2282 198.476 34.5985C197.061 34.5616 195.645 34.5693 194.23 34.5927C194.222 27.2205 194.229 19.8501 194.228 12.4779Z" fill="white"/>
<path d="M173.202 19.0423C174.448 18.0926 176.056 17.8732 177.574 17.7742C179.523 17.7139 181.621 17.9275 183.259 19.0812C184.395 19.8754 184.925 21.2641 184.942 22.6158C184.972 25.7931 184.931 28.9724 184.96 32.1515C184.958 32.8837 185.197 33.6859 185.898 34.0392C185.888 34.2219 185.882 34.4063 185.876 34.5908C184.344 34.5715 182.811 34.5636 181.279 34.5927C181.046 33.9674 180.916 33.309 180.836 32.6467C179.78 33.8236 178.369 34.7288 176.774 34.9229C174.962 35.2492 172.875 34.853 171.61 33.4275C169.746 31.1223 170.323 27.0613 173.07 25.694C175.178 24.6686 177.614 24.8881 179.834 24.2743C180.229 24.1656 180.475 23.8354 180.695 23.5131C180.726 22.8974 180.717 22.1885 180.184 21.7729C179.301 21.0582 178.046 21.1262 176.985 21.2737C175.936 21.4466 175.263 22.4507 175.185 23.4625C173.808 23.4665 172.432 23.4586 171.054 23.4665C171.226 21.8176 171.804 20.0523 173.202 19.0423ZM175.73 28.1294C174.857 28.644 174.687 29.786 174.92 30.693C175.172 31.4777 176.003 31.9904 176.813 31.9613C178.424 32.0331 180.193 31.0524 180.65 29.4404C180.788 28.5081 180.673 27.5603 180.737 26.6223C179.196 27.5293 177.269 27.2438 175.73 28.1294Z" fill="white"/>
<path d="M187.295 18.1973C188.717 18.2071 190.137 18.2071 191.559 18.1973C191.57 23.6703 191.57 29.1431 191.559 34.6159C190.138 34.6043 188.717 34.6024 187.297 34.6159C187.283 29.1431 187.285 23.6703 187.295 18.1973Z" fill="white"/>
<path d="M199.981 18.1762C201.563 18.2266 203.145 18.2033 204.728 18.1916C205.813 21.8585 206.866 25.5349 207.937 29.2055C208.062 29.5842 208.068 30.023 208.348 30.3358C209.493 26.2844 210.591 22.2216 211.755 18.1781C213.258 18.2305 214.766 18.1995 216.27 18.1937C214.078 24.3638 211.925 30.5493 209.772 36.7331C209.233 38.0498 208.764 39.5064 207.634 40.4464C206.936 41.0057 206.011 41.06 205.171 41.2115C204.226 41.1513 203.277 41.1921 202.335 41.1008C202.363 39.9802 202.345 38.8577 202.35 37.7371C203.226 37.7779 204.194 37.8944 204.989 37.4206C205.66 36.9506 205.895 36.0843 206.009 35.3134C204.051 29.5861 201.951 23.9015 199.981 18.1762Z" fill="white"/>
<path d="M43.6401 4.90552C45.3104 5.71344 47.0233 6.44562 48.7479 7.12341C49.6063 14.8763 48.8391 22.9108 45.8872 30.1724C43.71 35.5656 40.2627 40.4228 35.9785 44.3458C32.7176 47.3406 29.0004 49.813 25.0832 51.8618C24.7356 51.8269 24.4521 51.5609 24.1375 51.421C20.263 49.3721 16.6681 46.7987 13.4713 43.8002C10.63 41.0229 8.11306 37.8844 6.20009 34.3926C5.8272 33.7342 5.49898 33.0486 5.10474 32.4019C9.57353 32.4233 14.0384 31.6717 18.313 30.3801C19.29 30.0442 20.3057 29.7937 21.2243 29.3081C21.0456 30.8541 20.6359 32.3981 20.764 33.9614C21.2553 34.4567 21.8496 34.9946 22.6031 34.9363C24.155 34.9384 25.7086 34.9363 27.2623 34.9363C28.0216 34.9985 28.6198 34.4548 29.0995 33.94C29.2472 32.8505 28.9811 31.7747 28.851 30.7006C28.6916 29.1081 28.3383 27.535 28.2917 25.9328C34.0364 22.4855 39.1014 17.5797 41.8591 11.3941C42.7273 9.31994 43.3993 7.15061 43.6401 4.90552Z" fill="white"/>
<path d="M64.0162 12.9986C66.8963 11.6217 70.3513 11.5848 73.2801 12.8394C75.3251 13.7347 76.9914 15.4942 77.7235 17.6112C77.9566 18.2598 78.081 18.9415 78.2441 19.6115C76.7505 19.5882 75.2571 19.5785 73.7636 19.6173C73.4141 18.1822 72.5576 16.7935 71.1553 16.1954C69.627 15.5797 67.7917 15.5525 66.3351 16.3837C65.0745 17.1197 64.1502 18.3589 63.7035 19.7416C63.1111 21.4624 63.1733 23.3131 63.2607 25.1039C63.4103 26.7099 63.8976 28.3433 64.9542 29.592C66.8846 31.9265 71.0971 31.8701 72.8177 29.3182C73.315 28.6521 73.5693 27.8499 73.7849 27.0576C75.2668 27.0769 76.7505 27.0711 78.2343 27.0615C77.8945 28.3179 77.5216 29.5764 76.8633 30.7067C75.9136 32.4275 74.3249 33.7656 72.4856 34.4531C70.0735 35.327 67.3701 35.3077 64.9542 34.4609C62.5499 33.6723 60.6388 31.7284 59.7027 29.4016C58.3199 25.8496 58.2423 21.777 59.5085 18.1822C60.3165 15.9836 61.905 14.0474 64.0162 12.9986Z" fill="white"/>
<path d="M125.256 13.82C126.653 13.8375 128.051 13.8355 129.449 13.8219C129.44 15.3076 129.449 16.7954 129.442 18.283C130.329 18.2811 131.219 18.2965 132.106 18.2616C132.164 19.2308 132.137 20.2057 132.147 21.1768C131.246 21.1593 130.345 21.1729 129.445 21.1573C129.442 24.1074 129.449 27.0593 129.44 30.0114C129.432 30.4736 129.486 30.9359 129.558 31.3922C130.403 31.6195 131.275 31.705 132.147 31.6078C132.116 32.61 132.198 33.616 132.102 34.6142C130.774 34.7715 129.409 34.7715 128.082 34.589C127.144 34.4685 126.138 34.0976 125.66 33.2236C125.301 32.4682 125.26 31.6078 125.27 30.7863C125.276 27.5741 125.262 24.3638 125.276 21.1535C124.538 21.1689 123.8 21.1593 123.062 21.1884C123.105 20.2154 123.106 19.2404 123.06 18.2674C123.8 18.2869 124.54 18.2811 125.28 18.2869C125.26 16.7973 125.282 15.3097 125.256 13.82Z" fill="white"/>
<path d="M84.3738 20.1084C84.8943 19.1976 85.6866 18.38 86.7121 18.0673C87.4579 17.7858 88.2658 17.8576 89.0465 17.8557C89.0329 19.2694 89.0426 20.6833 89.0484 22.0972C87.854 22.0602 86.5645 21.9283 85.4867 22.5497C84.8729 22.843 84.4864 23.4159 84.1135 23.9596C83.7038 25.0258 83.8183 26.1795 83.8066 27.2962C83.8087 29.7064 83.7989 32.1185 83.8106 34.5306C82.42 34.5169 81.0295 34.5169 79.6408 34.5306C79.6545 29.1043 79.6583 23.6781 79.6389 18.2519C80.9713 18.2752 82.3055 18.2752 83.6397 18.2519C83.6318 19.151 83.6358 20.0502 83.6164 20.9495C84.0455 20.8717 84.1641 20.427 84.3738 20.1084Z" fill="white"/>
<path d="M111.211 20.5959C111.805 19.3567 112.953 18.4149 114.281 18.0672C116.351 17.5177 118.736 18.005 120.306 19.4986C121.23 20.3453 121.84 21.4796 122.209 22.6681C123.028 25.3657 122.871 28.343 121.84 30.9628C121.123 32.6622 119.75 34.1537 117.923 34.6354C116.365 35.154 114.671 34.9869 113.166 34.3751L113.209 34.2509C112.469 34.0041 111.793 33.3886 111.568 32.6291C111.444 32.6 111.195 32.5398 111.071 32.5107C111.249 33.9342 111.147 35.3695 111.172 36.7989C111.148 38.1895 111.228 39.5839 111.117 40.9724C109.74 40.9337 108.362 40.9491 106.983 40.9647C107.008 33.3982 107.012 25.8318 106.981 18.2653C108.292 18.2886 109.604 18.3061 110.915 18.2537C111.018 19.0442 110.972 19.8424 110.84 20.6269L111.211 20.5959ZM113.261 21.6115C112.71 21.965 112.123 22.3205 111.801 22.9147C110.884 24.3228 110.946 26.0824 111.014 27.6942C111.069 29.1121 111.84 30.485 113.058 31.2289C114.001 31.6212 115.042 31.5882 116.035 31.4289C116.924 30.9532 117.59 30.1841 118.01 29.2732C118.635 27.4418 118.633 25.4084 118.002 23.5789C117.548 22.7418 116.909 21.9282 115.986 21.5922C115.106 21.2328 114.151 21.396 113.261 21.6115Z" fill="white"/>
<path d="M137.794 18.3663C140.346 17.5002 143.288 17.7079 145.626 19.081C147.16 19.9724 148.23 21.5087 148.762 23.1809C149.432 25.3909 149.432 27.8108 148.644 29.9918C147.903 32.1281 146.112 33.7983 143.958 34.4606C141.647 35.2258 139.039 35.0937 136.842 34.0295C135.226 33.2584 133.954 31.8446 133.307 30.1802C132.408 27.6709 132.342 24.7966 133.426 22.3321C134.22 20.46 135.867 18.9994 137.794 18.3663ZM137.333 23.5731C136.795 25.2122 136.716 27.0165 137.192 28.6809C137.481 29.784 138.265 30.7143 139.275 31.2328C140.441 31.5591 141.763 31.6542 142.861 31.0581C143.571 30.7453 144.016 30.0909 144.418 29.4577C145.148 27.6632 145.086 25.6104 144.61 23.7596C144.224 22.9574 143.711 22.1631 142.907 21.7301C142.008 21.2212 140.926 21.2815 139.938 21.3901C138.747 21.5922 137.873 22.5516 137.333 23.5731Z" fill="white"/>
<path d="M89.7896 18.2694C91.3472 18.2927 92.9066 18.2869 94.4662 18.2732C95.0507 20.5242 95.7615 22.7401 96.3772 24.9833C96.8841 26.7622 97.4745 28.5217 97.8785 30.3279C97.9697 30.326 98.1503 30.3241 98.2398 30.3221C99.2573 26.2825 100.473 22.2896 101.551 18.2636C103.009 18.2946 104.47 18.2927 105.931 18.2655C105.558 19.1744 105.292 20.1241 104.923 21.0349C104.482 22.3323 104.052 23.6355 103.569 24.9192C103.056 26.4126 102.553 27.912 102.011 29.3957C101.557 30.6931 101.126 32.0021 100.654 33.2935C100.195 34.5832 99.7875 35.8883 99.2923 37.1642C98.7583 38.4537 98.2358 39.9394 96.9307 40.6405C95.4431 41.2756 93.7748 41.1164 92.1979 41.0891C92.2231 39.9977 92.2405 38.9063 92.1842 37.8168C92.9882 37.8925 93.8351 37.9196 94.5904 37.5875C95.5576 37.003 96.0121 35.7135 95.6704 34.6452C95.212 33.5673 94.878 32.4429 94.4778 31.3437C94.1243 30.4444 93.833 29.522 93.5088 28.6131C92.3997 25.5095 91.2948 22.4041 90.213 19.2909C90.0731 18.9491 89.9314 18.6093 89.7896 18.2694Z" fill="white"/>
</g>
<defs>
<clipPath id="clip0_1042_448">
<rect width="215.574" height="52" fill="white" transform="translate(0.800293)"/>
</clipPath>
</defs>
</svg>
