<svg width="260" height="52" viewBox="0 0 260 52" fill="none" xmlns="http://www.w3.org/2000/svg">
<g clip-path="url(#clip0_1042_392)">
<path d="M16.2186 21.8582L26.2976 11.7833L36.3806 21.8664L42.2418 16.001L26.2976 0.0526123L10.3533 15.9969L16.2186 21.8582Z" fill="white"/>
<path d="M0.346191 26.0008L6.20941 20.1376L12.0726 26.0008L6.20941 31.864L0.346191 26.0008Z" fill="white"/>
<path d="M16.2188 30.1419L26.2977 40.2208L36.3807 30.1378L42.2461 35.9949L42.242 35.999L26.2977 51.9474L10.3534 36.0072L10.3452 35.999L16.2188 30.1419Z" fill="white"/>
<path d="M40.5127 26.0024L46.3759 20.1392L52.2391 26.0024L46.3759 31.8656L40.5127 26.0024Z" fill="white"/>
<path d="M32.2449 25.9978L26.2976 20.0464L21.8996 24.4444L21.3913 24.9485L20.3502 25.9896L20.342 25.9978L20.3502 26.0101L26.2976 31.9534L32.2449 26.0019L32.249 25.9978H32.2449Z" fill="white"/>
<path d="M61.387 12.6277H74.1424C77.3067 12.6277 79.7003 13.4474 81.3235 15.087C81.935 15.6926 82.4171 16.4161 82.7405 17.2137C83.0639 18.0113 83.2219 18.8663 83.2048 19.7268V19.8047C83.2158 20.5096 83.1176 21.212 82.9138 21.8868C82.7322 22.4678 82.4686 23.0199 82.1309 23.5264C81.8161 24.0039 81.4353 24.4345 80.9997 24.8052C80.5741 25.1715 80.1078 25.4878 79.6102 25.7479C81.0454 26.2478 82.336 27.0922 83.3688 28.2072C84.2814 29.2455 84.7378 30.6801 84.7378 32.5109V32.5888C84.7637 33.7322 84.5149 34.8651 84.0123 35.8924C83.5252 36.8389 82.8113 37.6501 81.9342 38.2533C80.9426 38.9181 79.8385 39.3972 78.6756 39.6674C77.2941 39.995 75.8778 40.1533 74.458 40.1387H61.387V12.6277ZM72.8636 23.7518C73.9671 23.8051 75.0654 23.5677 76.0483 23.0632C76.4317 22.8393 76.7446 22.5125 76.9518 22.1199C77.159 21.7273 77.2521 21.2845 77.2206 20.8417V20.7638C77.2409 20.3558 77.158 19.9492 76.9796 19.5817C76.8012 19.2142 76.5331 18.8976 76.2 18.6611C75.5196 18.1774 74.5372 17.9356 73.253 17.9356H67.2851V23.7518H72.8636ZM74.4744 34.839C75.5739 34.9006 76.6683 34.649 77.6305 34.1135C78.0053 33.8727 78.3087 33.5358 78.5091 33.1378C78.7095 32.7399 78.7996 32.2955 78.7699 31.851V31.7731C78.7847 31.3506 78.6956 30.9308 78.5106 30.5507C78.3255 30.1705 78.05 29.8416 77.7083 29.5926C77.0033 29.0461 75.8639 28.7728 74.2899 28.7728H67.2851V34.839H74.4744Z" fill="white"/>
<path d="M92.3372 12.6277H98.3911V40.1469H92.3372V12.6277Z" fill="white"/>
<path d="M107.552 12.6277H113.135L126.038 29.5639V12.6277H132.014V40.1469H126.861L113.536 22.6533V40.1469H107.552V12.6277Z" fill="white"/>
<path d="M150.343 12.431H155.917L167.709 40.147H161.389L158.872 33.9742H147.236L144.719 40.147H138.546L150.343 12.431ZM156.712 28.6294L153.048 19.7022L149.4 28.6294H156.712Z" fill="white"/>
<path d="M174.255 12.6277H179.838L192.732 29.5639V12.6277H198.708V40.1469H193.556L180.231 22.6533V40.1469H174.255V12.6277Z" fill="white"/>
<path d="M220.498 40.6306C218.569 40.6471 216.656 40.2735 214.875 39.5321C213.198 38.8397 211.676 37.8186 210.4 36.5289C209.124 35.2393 208.118 33.7073 207.443 32.0232C206.731 30.2615 206.371 28.3776 206.382 26.4775V26.3996C206.35 22.6543 207.791 19.0464 210.395 16.3535C211.675 15.0381 213.209 13.9952 214.903 13.2876C216.746 12.5243 218.725 12.1436 220.719 12.1686C221.899 12.1598 223.077 12.2655 224.236 12.4843C225.228 12.6718 226.198 12.9617 227.13 13.3491C227.976 13.7051 228.78 14.1532 229.528 14.6853C230.257 15.2042 230.943 15.7828 231.577 16.415L227.728 20.8581C226.745 19.9508 225.642 19.1826 224.449 18.575C223.278 18.015 221.993 17.7344 220.695 17.7553C219.615 17.7438 218.544 17.9622 217.555 18.3961C216.565 18.83 215.68 19.4694 214.957 20.2719C214.239 21.0724 213.678 21.9995 213.301 23.0058C212.906 24.0693 212.707 25.1956 212.714 26.3299V26.4078C212.711 27.5406 212.909 28.6649 213.301 29.7278C213.673 30.7378 214.229 31.6702 214.94 32.4781C215.658 33.2906 216.541 33.9394 217.531 34.3807C218.521 34.8219 219.595 35.0453 220.678 35.0358C222.059 35.0793 223.428 34.7822 224.667 34.1709C225.845 33.5285 226.935 32.7348 227.909 31.81L231.762 35.7039C231.081 36.4422 230.345 37.1274 229.56 37.7533C228.789 38.363 227.952 38.8841 227.064 39.3067C226.118 39.752 225.122 40.0809 224.097 40.2863C222.912 40.5238 221.706 40.6392 220.498 40.6306Z" fill="white"/>
<path d="M238.906 12.6277H259.617V18.0135H244.861V23.596H257.854V28.9819H244.882V34.7611H259.822V40.1469H238.918L238.906 12.6277Z" fill="white"/>
</g>
<defs>
<clipPath id="clip0_1042_392">
<rect width="259.47" height="51.8947" fill="white" transform="translate(0.348145 0.0526123)"/>
</clipPath>
</defs>
</svg>
