<svg width="25" height="24" viewBox="0 0 25 24" fill="none" xmlns="http://www.w3.org/2000/svg">
<path fill-rule="evenodd" clip-rule="evenodd" d="M18.3823 6.07425C19.5145 5.98254 19.7251 5.99348 19.9029 6.07174C20.086 6.15237 20.2846 6.33548 20.3797 6.51154C20.4094 6.56632 20.4498 6.66941 20.4738 6.94276C20.4991 7.23098 20.5 7.6094 20.5 8.20002V14.8C20.5 15.3583 20.4993 15.7209 20.4783 15.9967C20.458 16.2634 20.4233 16.3613 20.4018 16.4062C20.3057 16.6065 20.1956 16.7259 20.0036 16.8378C19.9707 16.857 19.8698 16.9033 19.561 16.95C19.2521 16.9967 18.8396 17.0307 18.2209 17.0808C16.6399 17.2088 15.2171 17.5389 13.5 18.348V7.58525C13.5679 7.55142 13.6332 7.51726 13.6951 7.4849L13.7643 7.44875C15.5479 6.52314 16.8673 6.19695 18.3823 6.07425ZM11.5 7.58628C11.4336 7.5535 11.3696 7.52042 11.3089 7.48903L11.2388 7.45287C9.49421 6.5578 8.14216 6.23877 6.66152 6.10868C6.11634 6.06077 5.77592 6.0319 5.51247 6.03368C5.27033 6.03531 5.1685 6.06419 5.10149 6.09331C4.9148 6.17443 4.71838 6.35434 4.62124 6.53322C4.59214 6.58679 4.55095 6.69093 4.52652 6.97083C4.50089 7.26462 4.5 7.65091 4.5 8.25155V14.8C4.5 15.3583 4.50068 15.7209 4.52168 15.9967C4.54198 16.2634 4.57672 16.3613 4.59825 16.4062C4.6943 16.6065 4.80439 16.7259 4.99636 16.8378C5.02933 16.857 5.13018 16.9033 5.43904 16.95C5.74795 16.9967 6.16042 17.0307 6.77914 17.0808C8.36011 17.2088 9.78288 17.5389 11.5 18.348V7.58628ZM20.7087 4.24124C20.0077 3.93271 19.2465 3.99583 18.3946 4.06648L18.2209 4.08077C16.4428 4.22479 14.8648 4.62437 12.8431 5.67357C12.6774 5.75954 12.5844 5.80752 12.5151 5.83938L12.4996 5.84635L12.4834 5.83912C12.4132 5.80723 12.319 5.75916 12.1518 5.67339C10.1598 4.65141 8.55431 4.26727 6.83657 4.11635L6.7951 4.11271C6.30387 4.06952 5.86836 4.03123 5.49898 4.03372C5.09793 4.03643 4.70342 4.08564 4.30447 4.25899C3.7084 4.51798 3.17388 5.0076 2.86371 5.57871C2.65033 5.9716 2.57029 6.38221 2.5341 6.79696C2.49996 7.18813 2.49998 7.66252 2.5 8.21062V8.21065L2.5 8.25155V14.8L2.5 14.8364V14.8364C2.49999 15.3482 2.49997 15.7876 2.52745 16.1485C2.55627 16.5271 2.61978 16.9057 2.79475 17.2707C3.06383 17.832 3.45128 18.2521 3.98907 18.5656C4.34882 18.7754 4.74649 18.868 5.14014 18.9275C5.5259 18.9859 6.00813 19.0249 6.58256 19.0714L6.61768 19.0743C8.13268 19.197 9.4521 19.5232 11.2357 20.4488L11.3049 20.4849C11.5411 20.6085 11.828 20.7586 12.1194 20.8151C12.3815 20.8659 12.6185 20.8659 12.8806 20.8151C13.172 20.7586 13.4589 20.6085 13.6951 20.4849L13.7643 20.4488C15.5479 19.5232 16.8673 19.197 18.3823 19.0743L18.4174 19.0714C18.9919 19.0249 19.4741 18.9859 19.8599 18.9275C20.2535 18.868 20.6512 18.7754 21.0109 18.5656C21.5487 18.2521 21.9362 17.832 22.2053 17.2707C22.3802 16.9057 22.4437 16.5271 22.4726 16.1485C22.5 15.7876 22.5 15.3482 22.5 14.8364V14.8V8.20002V8.15921C22.5 7.62111 22.5 7.15395 22.4661 6.76767C22.43 6.35679 22.3501 5.95087 22.1392 5.56062C21.8327 4.99354 21.2986 4.50094 20.7087 4.24124Z" fill="#000000"/>
</svg>
