<svg width="81" height="35" viewBox="0 0 81 35" fill="none" xmlns="http://www.w3.org/2000/svg">
<path d="M77.8582 0V2.20031L19.1366 2.20031L2.19336 18.144L19.1366 34.0946L80.0516 34.0946V18.144V2.20031L77.8582 0Z" fill="#C99663"/>
<path d="M16.9432 0L77.8583 0V15.9506V31.9013L16.9432 31.9013L0 15.9506L16.9432 0Z" fill="#F4C790"/>
<mask id="mask0_9_213" style="mask-type:luminance" maskUnits="userSpaceOnUse" x="0" y="0" width="78" height="32">
<path d="M16.9432 0L77.8583 0V15.9506V31.9013L16.9432 31.9013L0 15.9506L16.9432 0Z" fill="white"/>
</mask>
<g mask="url(#mask0_9_213)">
<path d="M83.7026 31.5193C83.647 31.2 83.4805 31.0473 83.2861 31.0126H83.2722C83.2653 31.0126 83.2514 31.0126 83.2445 31.0126C83.2167 31.0126 83.189 30.9987 83.1612 30.9987C70.459 30.6933 57.7221 30.6655 45.0199 31.2555C37.0515 31.6234 29.1803 33.0047 21.2397 33.8723C14.4513 34.615 7.64901 35.2119 0.846733 35.7048C0.520502 35.7256 0.305323 36.0171 0.277559 36.4197C0.263676 36.5724 0.256751 36.732 0.249809 36.8848C0.228986 37.2596 0.527437 37.6205 0.818963 37.5997C7.41994 37.1346 14.0209 36.5307 20.615 35.8366C28.6111 34.9898 36.5378 33.5738 44.5548 33.1921C57.4444 32.5743 70.3757 32.7409 83.2722 33.0394C83.654 33.0463 83.8969 32.5812 83.8206 32.1301C83.7859 31.9288 83.7512 31.7275 83.7165 31.5193H83.7026Z" fill="#E8AF70"/>
<path d="M83.7097 27.3825C83.675 27.202 83.5986 27.0771 83.5084 26.9938C83.4182 26.9105 83.3071 26.855 83.1613 26.855C71.07 27.1465 58.9716 27.5699 46.8872 28.1321C39.7726 28.4584 32.6302 29.3468 25.5156 29.4926C17.2418 29.6592 8.52377 26.9868 0.8608 23.079C0.513745 22.9055 0.138906 23.3428 0.145847 23.7731C0.145847 23.9813 0.145847 24.1896 0.145847 24.3978C0.145847 24.7449 0.319378 24.967 0.562317 25.085C7.88517 28.8471 16.0132 31.0474 23.8983 31.3806C27.5215 31.5333 31.1864 30.9502 34.8027 30.7073C38.6065 30.4574 42.4102 30.27 46.2208 30.0964C58.576 29.5412 70.9311 29.2288 83.2863 28.8887C83.6611 28.8818 83.9248 28.4375 83.8346 27.9794C83.793 27.7781 83.7513 27.5838 83.7166 27.3825H83.7097Z" fill="#E8AF70"/>
<path d="M83.1751 20.6911C74.2974 21.5657 65.3781 22.0654 56.5352 23.3773C50.1979 24.3213 43.9163 24.2102 37.5374 23.8909C25.2378 23.2801 13.0631 21.3436 0.881487 19.2265C0.437257 19.1502 0.104085 19.525 0.187378 20.1081C0.215142 20.3302 0.242889 20.5453 0.277594 20.7674C0.305359 20.9826 0.499715 21.2394 0.673242 21.2672C12.6675 23.3148 24.6964 25.0917 36.7947 25.7581C43.2291 26.1121 49.7051 26.4106 56.0979 25.3486C65.0588 23.8562 74.1586 23.4814 83.1681 22.5929C83.4805 22.5652 83.7234 22.2945 83.7373 21.878C83.7373 21.7253 83.7373 21.5656 83.7442 21.4129C83.7442 21.2394 83.7095 21.1006 83.654 20.9965C83.5707 20.8091 83.4111 20.6772 83.182 20.698L83.1751 20.6911Z" fill="#E8AF70"/>
<path d="M2.97776 9.91884C5.57373 10.2659 8.14888 11.0433 10.6824 11.8138C16.4921 13.5768 22.2185 15.8049 27.9587 17.8942C32.1165 19.4074 36.413 21.2536 40.7373 21.7603C43.4096 22.0727 46.1305 21.8576 48.8028 21.6702C60.3598 20.8789 71.9098 18.984 83.3626 16.9433C83.6957 16.8808 83.8068 16.5546 83.7652 16.2353C83.7652 16.1797 83.7652 16.1242 83.7652 16.0617C83.7513 15.909 83.7304 15.7563 83.7166 15.6036C83.668 15.1802 83.2932 15.0553 83.0225 15.1039C72.2152 17.0196 61.3385 18.7132 50.4479 19.6433C47.7409 19.8724 45.02 20.0529 42.306 19.9626C38.4537 19.8377 34.6639 18.262 30.9851 16.9571C25.2934 14.9442 19.6503 12.7508 13.9378 10.849C9.59263 9.39828 5.09478 7.89206 0.583073 7.68383C0.18049 7.66301 -0.159611 8.3224 0.0972093 8.75969C0.86073 10.0993 1.71447 9.75226 2.99163 9.91884H2.97776Z" fill="#E8AF70"/>
<path d="M42.9239 11.8065C41.4801 12.4035 39.9392 12.9865 38.6273 13.9791C38.2803 14.2359 37.7458 14.7357 37.7875 15.3326C37.9332 17.4844 41.5287 17.1234 42.7087 17.165C50.1079 17.4219 57.5626 16.6098 64.9341 15.9365C71.0353 15.3812 77.1296 14.7357 83.2169 14.0068C83.5223 13.9721 83.7861 13.7084 83.7861 13.2919C83.7861 13.1392 83.7861 12.9796 83.7861 12.8269C83.7861 12.4659 83.5292 12.0703 83.2169 12.1119C70.9589 13.5696 58.6316 14.9855 46.3181 15.2701C44.9715 15.2979 43.6249 15.3049 42.2783 15.2493C41.7647 15.2285 41.2511 15.1938 40.7374 15.1382C40.5153 15.1174 40.3487 15.0758 40.2168 15.048C40.8415 14.7079 41.6814 14.3539 42.0493 14.1804C48.3449 11.2443 54.9458 9.23138 61.4427 7.15599C68.7517 4.82378 76.0953 2.69288 83.446 0.624439C83.7583 0.534205 83.8763 0.22879 83.8486 -0.0766184C83.8833 -0.388968 83.7653 -0.701303 83.446 -0.756832C80.7667 -1.22189 77.6502 0.485605 75.075 1.26301C68.5018 3.23428 61.9286 5.24024 55.3762 7.36421C51.2046 8.72467 47.026 10.1198 42.9239 11.8065Z" fill="#E8AF70"/>
<path d="M83.1891 2.2142C79.5797 3.35254 75.9981 4.61581 72.4512 6.01791C71.299 6.47602 65.4546 8.03085 65.4546 10.3422C65.4546 14.028 81.2178 10.5088 83.3973 10.1409C83.6194 10.0993 83.8416 9.73139 83.8138 9.44681C83.7999 9.2941 83.7791 9.14142 83.7652 8.98872C83.7305 8.64166 83.5292 8.21823 83.196 8.27376C80.0239 8.80823 76.8519 9.27329 73.6659 9.63423C72.361 9.77999 71.0491 9.89798 69.7372 9.96739C69.175 9.99516 68.6128 10.0021 68.0506 9.99518C68.0089 9.99518 67.9672 9.99518 67.9325 9.98823C69.647 8.79437 71.9792 8.25989 73.7214 7.59355C76.949 6.36497 80.2113 5.27522 83.4806 4.24794C83.6749 4.18547 83.793 4.03971 83.8415 3.85924C83.8415 3.85924 83.8415 3.84538 83.8415 3.83844C83.8415 3.81761 83.8554 3.79676 83.8623 3.769C83.8762 3.70653 83.8901 3.63018 83.8901 3.55383C83.8901 3.33865 83.8901 3.12348 83.8901 2.90136C83.8901 2.42937 83.5292 2.0962 83.1752 2.20725L83.1891 2.2142Z" fill="#E8AF70"/>
<path d="M4.11605 6.08043C7.2326 6.57324 10.3422 7.24654 13.431 7.96148C19.2893 9.32193 25.2448 12.376 31.2627 11.2585C34.8929 10.5852 38.4189 9.25252 41.952 8.04477C46.2346 6.57326 50.552 5.24053 54.8693 3.93561C58.5551 2.82503 62.2477 1.74916 65.9404 0.680234C67.2245 0.312356 68.8001 0.152745 70.0356 -0.499718C70.1536 -0.520541 70.2508 -0.589966 70.3202 -0.687141C70.6811 -1.06196 70.4521 -2.01288 69.9454 -1.93653C69.9315 -1.93653 69.9246 -1.93653 69.9107 -1.93653C66.3499 -2.24194 62.7544 -0.485851 59.3186 0.569195C51.1003 3.08187 42.9584 5.94855 34.754 8.47511C31.4917 9.48157 28.2155 10.0299 24.8838 9.21781C21.9338 8.49594 19.0394 7.3784 16.0894 6.6357C11.0641 5.35854 5.74722 3.81763 0.59693 3.69964C0.0555251 3.68575 -0.0971908 4.46316 0.194335 4.92127C1.02033 6.2262 2.86665 5.87219 4.11605 6.07348V6.08043Z" fill="#E8AF70"/>
<path d="M0.402667 0.534577C0.458196 0.860809 0.70806 1.03434 0.950999 1.06211C9.97442 1.95057 19.0117 2.721 28.0143 3.90099C32.3872 4.4771 37.2043 2.65162 41.4523 1.58269C45.6655 0.520702 49.8718 -0.624587 54.0573 -1.85316C54.217 -1.8601 54.3419 -1.95035 54.4182 -2.08223C54.5987 -2.33905 54.564 -2.7555 54.3905 -3.01926C54.3697 -3.05397 54.3488 -3.08173 54.3211 -3.1095C54.3211 -3.1095 54.3141 -3.11645 54.3072 -3.12339C54.2794 -3.15116 54.2517 -3.17196 54.2239 -3.19279C54.2239 -3.19279 54.2239 -3.19279 54.217 -3.19279C54.1892 -3.21361 54.1545 -3.2275 54.1267 -3.24138C54.1198 -3.24138 54.1128 -3.24139 54.1059 -3.24833C54.0851 -3.24833 54.0643 -3.25528 54.0434 -3.26222C54.0226 -3.26222 54.0087 -3.27608 53.9879 -3.27608C50.3369 -3.58148 46.4291 -1.65881 42.8752 -0.721759C39.9322 0.0556432 36.9753 0.798317 34.0114 1.42302C32.1026 1.8256 30.1453 2.28374 28.2087 2.01998C19.1089 0.770585 9.96054 -0.0554109 0.839939 -0.978576C0.458178 -1.02022 0.215255 -0.492701 0.291607 -0.0692946C0.326313 0.138938 0.367962 0.340198 0.402667 0.548431V0.534577Z" fill="#E8AF70"/>
</g>
<path opacity="0.18" d="M44.3952 0L16.9432 0L0 15.9506L2.2628 18.0815L2.19339 18.144L19.1366 34.0946L44.3952 34.0946L44.3952 0Z" fill="white"/>
<path fill-rule="evenodd" clip-rule="evenodd" d="M54.9543 18.6871L33.1711 18.6871C32.9251 18.6871 32.7239 18.8212 32.6289 19.0504C32.5338 19.2796 32.5786 19.52 32.7574 19.6932L37.8497 24.7855C37.9615 24.8973 38.0174 25.037 38.0174 25.1936L38.0174 25.3501C38.0174 25.6687 37.7603 25.9314 37.436 25.9314L35.4684 25.9314C35.3063 25.9314 35.1722 25.8755 35.0604 25.7637L27.1677 17.8766C26.9441 17.653 26.9441 17.2841 27.1677 17.0605L35.0604 9.16776C35.1722 9.05596 35.3119 9.00007 35.4684 9.00007L37.436 9.00007C37.7547 9.00007 38.0174 9.26278 38.0174 9.5814L38.0174 9.7435C38.0174 9.9056 37.9615 10.0398 37.8497 10.1516L32.7574 15.2382C32.5842 15.4115 32.5338 15.6519 32.6289 15.881C32.7239 16.1102 32.9251 16.2444 33.1711 16.2444L54.9543 16.2444C55.2729 16.2444 55.5356 16.5015 55.5356 16.8201L55.5356 18.1113C55.5356 18.43 55.2785 18.6871 54.9543 18.6871Z" fill="#8A4E0C"/>
</svg>
