<svg width="81" height="35" viewBox="0 0 81 35" fill="none" xmlns="http://www.w3.org/2000/svg">
<path d="M2.28641 0.215332L2.28641 2.4087L61.0081 2.4087L77.9513 18.3593L61.0081 34.31L0.0930176 34.31L0.0930176 18.3593L0.0930176 2.4087L2.28641 0.215332Z" fill="#C99663"/>
<path d="M63.2014 0.215454L2.28638 0.215454L2.28638 16.1661L2.28638 32.1097L63.2014 32.1097L80.1516 16.1661L63.2014 0.215454Z" fill="#F4C790"/>
<mask id="mask0_9_191" style="mask-type:luminance" maskUnits="userSpaceOnUse" x="2" y="0" width="79" height="33">
<path d="M63.2014 0.215454L2.28638 0.215454L2.28638 16.1661L2.28638 32.1097L63.2014 32.1097L80.1516 16.1661L63.2014 0.215454Z" fill="white"/>
</mask>
<g mask="url(#mask0_9_191)">
<path d="M-3.55818 31.7349C-3.50265 31.4156 -3.33606 31.2629 -3.14171 31.2282H-3.12781C-3.12087 31.2282 -3.10701 31.2282 -3.10007 31.2282C-3.0723 31.2282 -3.04454 31.2143 -3.01678 31.2143C9.68542 30.9089 22.4293 30.8811 35.1245 31.4711C43.0929 31.839 50.9641 33.2203 58.9047 34.0879C65.6931 34.8306 72.4954 35.4276 79.2977 35.9204C79.6239 35.9412 79.8391 36.2327 79.8668 36.6353C79.8807 36.788 79.8876 36.9476 79.8946 37.1003C79.9154 37.4751 79.6169 37.8361 79.3254 37.8153C72.7244 37.3502 66.1235 36.7463 59.5294 36.0522C51.5333 35.2054 43.6066 33.7894 35.5896 33.4077C22.7 32.7899 9.76874 32.9565 -3.12781 33.255C-3.50957 33.2619 -3.75252 32.7899 -3.67617 32.3457C-3.64146 32.1444 -3.60676 31.9362 -3.57205 31.7349H-3.55818Z" fill="#E8AF70"/>
<path d="M-3.56504 27.598C-3.53033 27.4176 -3.454 27.2926 -3.36376 27.2093C-3.27353 27.126 -3.16247 27.0705 -3.01671 27.0705C9.07468 27.3621 21.173 27.7854 33.2575 28.3477C40.3721 28.6808 47.5145 29.5624 54.6291 29.7081C62.9029 29.8747 71.6209 27.2024 79.2838 23.2946C79.6309 23.1211 80.0057 23.5583 79.9988 23.9887C79.9988 24.1969 79.9988 24.4051 79.9988 24.6134C79.9988 24.9604 79.8183 25.1825 79.5823 25.3005C72.2594 29.0626 64.1314 31.2629 56.2463 31.5961C52.6231 31.7488 48.9582 31.1658 45.3419 30.9228C41.5382 30.673 37.7345 30.4855 33.9238 30.312C21.5686 29.7567 9.2135 29.4444 -3.14164 29.1043C-3.51646 29.0973 -3.78021 28.6531 -3.68997 28.195C-3.64833 27.9937 -3.60669 27.7993 -3.57199 27.598H-3.56504Z" fill="#E8AF70"/>
<path d="M-3.03068 20.9064C5.84698 21.781 14.7663 22.2808 23.6092 23.5926C29.9395 24.5366 36.2281 24.4256 42.607 24.1063C54.9066 23.4955 67.0813 21.5589 79.2629 19.4418C79.7072 19.3655 80.0403 19.7473 79.964 20.3234C79.9362 20.5455 79.9015 20.7607 79.8738 20.9828C79.846 21.1979 79.6516 21.4547 79.4781 21.4825C67.477 23.5301 55.455 25.3071 43.3567 25.9734C36.9292 26.3274 30.4462 26.6328 24.0535 25.5639C15.0925 24.0715 5.99273 23.6967 -3.0168 22.8083C-3.32915 22.7805 -3.57208 22.5098 -3.58596 22.0933C-3.58596 21.9406 -3.59291 21.781 -3.59985 21.6283C-3.59985 21.4548 -3.56514 21.316 -3.50267 21.2118C-3.41937 21.0244 -3.25973 20.8925 -3.03068 20.9133V20.9064Z" fill="#E8AF70"/>
<path d="M77.1739 10.1343C74.578 10.4814 72.0028 11.2588 69.4693 12.0292C63.6527 13.7923 57.9332 16.0204 52.1929 18.1096C48.0421 19.6228 43.7456 21.4691 39.4144 21.9758C36.742 22.2882 34.0211 22.073 31.3488 21.8856C19.7919 21.0943 8.2419 19.1994 -3.2109 17.1587C-3.54407 17.0963 -3.65512 16.77 -3.61348 16.4507C-3.61348 16.3952 -3.61348 16.3397 -3.61348 16.2772C-3.59959 16.1245 -3.57876 15.9718 -3.56488 15.8191C-3.5163 15.3957 -3.14148 15.2707 -2.87077 15.3193C7.93651 17.2351 18.8132 18.9287 29.7038 19.8588C32.4108 20.0879 35.1317 20.2683 37.8457 20.1781C41.698 20.0531 45.4878 18.4775 49.1666 17.1726C54.8583 15.1597 60.5014 12.9732 66.2139 11.0644C70.5591 9.61373 75.0569 8.10752 79.5686 7.89929C79.9712 7.87846 80.3113 8.5379 80.0544 8.97519C79.2909 10.3148 78.4372 9.96776 77.167 10.1413L77.1739 10.1343Z" fill="#E8AF70"/>
<path d="M37.2208 12.022C38.6646 12.6189 40.2055 13.202 41.5173 14.1946C41.8644 14.4514 42.3989 14.9512 42.3572 15.555C42.2184 17.7068 38.616 17.3458 37.436 17.3875C30.0368 17.6443 22.582 16.8322 15.2106 16.1589C9.10938 15.6036 3.0151 14.9581 -3.07223 14.2293C-3.37764 14.1946 -3.64141 13.9308 -3.64141 13.5143C-3.64141 13.3616 -3.64141 13.202 -3.64141 13.0493C-3.64141 12.6884 -3.38458 12.2996 -3.07223 12.3344C9.18574 13.792 21.5131 15.208 33.8266 15.4925C35.1732 15.5203 36.5198 15.5273 37.8663 15.4717C38.38 15.4509 38.8936 15.4162 39.4073 15.3607C39.6294 15.3398 39.796 15.2982 39.9278 15.2705C39.3031 14.9304 38.4633 14.5764 38.0954 14.4028C31.7998 11.4667 25.1988 9.45379 18.702 7.3784C11.393 5.04619 4.05628 2.9153 -3.30128 0.846851C-3.61363 0.756617 -3.73164 0.451202 -3.70388 0.145794C-3.73858 -0.166556 -3.62751 -0.478891 -3.30128 -0.53442C-0.622019 -0.999473 2.49453 0.708017 5.06968 1.48542C11.6429 3.45669 18.2161 5.46269 24.7685 7.58667C28.9401 8.94018 33.1186 10.3423 37.2208 12.0289V12.022Z" fill="#E8AF70"/>
<path d="M-3.04444 2.42918C0.564932 3.56752 4.14654 4.83078 7.69344 6.23288C8.8526 6.69099 14.69 8.24579 14.69 10.5572C14.69 14.2429 -1.07318 10.7238 -3.25268 10.3559C-3.4748 10.3142 -3.69689 9.94637 -3.66913 9.66178C-3.65525 9.50908 -3.64137 9.35635 -3.62749 9.20365C-3.59278 8.85659 -3.3915 8.43321 -3.05833 8.48874C0.113748 9.0232 3.28584 9.48823 6.4718 9.84917C7.77672 9.99493 9.08859 10.113 10.4005 10.1824C10.9627 10.2101 11.5249 10.2171 12.0871 10.2101C12.1288 10.2101 12.1704 10.2101 12.2051 10.2032C10.4907 9.01624 8.15849 8.47487 6.41628 7.80852C3.18867 6.57995 -0.073643 5.49019 -3.3429 4.46291C-3.53725 4.40044 -3.65526 4.25465 -3.70385 4.08112C-3.70385 4.08112 -3.70385 4.06726 -3.70385 4.06032C-3.70385 4.03949 -3.71773 4.01869 -3.72467 3.99092C-3.73855 3.92845 -3.75244 3.85206 -3.75244 3.77571C-3.75244 3.56053 -3.75244 3.3454 -3.75244 3.12329C-3.75244 2.65129 -3.39151 2.31812 -3.03751 2.42918H-3.04444Z" fill="#E8AF70"/>
<path d="M76.0285 6.28848C72.905 6.78129 69.8024 7.45455 66.7136 8.16948C60.8553 9.52994 54.8999 12.584 48.8819 11.4665C45.2517 10.7932 41.7257 9.46052 38.1927 8.25277C33.9031 6.78126 29.5926 5.44858 25.2753 4.14366C21.5895 3.03308 17.8969 1.95027 14.2042 0.888283C12.9201 0.520406 11.3445 0.360752 10.109 -0.291711C9.99098 -0.312534 9.8938 -0.381916 9.82439 -0.479092C9.46345 -0.853911 9.68557 -1.80487 10.1992 -1.72852C10.2131 -1.72852 10.22 -1.72852 10.2339 -1.72852C13.7878 -2.03393 17.3832 -0.277802 20.826 0.777245C29.0373 3.28992 37.1862 6.15656 45.3906 8.68312C48.6529 9.68958 51.9291 10.2379 55.2608 9.42582C58.2038 8.70395 61.1052 7.58645 64.0552 6.84375C69.0805 5.56659 74.3974 4.02564 79.5477 3.90764C80.0891 3.89376 80.2418 4.67117 79.9503 5.12928C79.1243 6.43421 77.2779 6.08024 76.0285 6.28153V6.28848Z" fill="#E8AF70"/>
<path d="M79.742 0.749665C79.6795 1.0759 79.4365 1.24943 79.1936 1.27719C70.1702 2.16565 61.1259 2.93613 52.1303 4.11612C47.7574 4.69223 42.9403 2.87365 38.6923 1.79778C34.4791 0.73579 30.2728 -0.409499 26.0873 -1.63807C25.9276 -1.64501 25.8027 -1.73522 25.7263 -1.8671C25.5459 -2.12392 25.5806 -2.54041 25.7541 -2.80417C25.7749 -2.83888 25.7958 -2.86664 25.8235 -2.89441C25.8235 -2.89441 25.8305 -2.90134 25.8374 -2.90828C25.8652 -2.93605 25.8929 -2.95688 25.9207 -2.9777C25.9207 -2.9777 25.9207 -2.9777 25.9276 -2.9777C25.9554 -2.99852 25.9901 -3.01239 26.0179 -3.02627C26.0179 -3.02627 26.0318 -3.02628 26.0387 -3.03322C26.0595 -3.03322 26.0803 -3.04015 26.1012 -3.04709C26.122 -3.04709 26.1359 -3.06099 26.1567 -3.06099C29.8077 -3.3664 33.7155 -1.44372 37.2694 -0.506671C40.2124 0.270731 43.1693 1.01345 46.1332 1.63815C48.035 2.04073 49.9993 2.49883 51.929 2.23507C61.0287 0.985672 70.1771 0.159677 79.2977 -0.763488C79.6795 -0.805135 79.9224 -0.277613 79.846 0.145793C79.8113 0.354026 79.7697 0.555328 79.735 0.763561L79.742 0.749665Z" fill="#E8AF70"/>
</g>
<path opacity="0.18" d="M35.7493 0.215454L63.2013 0.215454L80.1514 16.1661L77.8817 18.29L77.9511 18.3594L61.0079 34.3101L35.7493 34.3101L35.7493 0.215454Z" fill="white"/>
<path fill-rule="evenodd" clip-rule="evenodd" d="M22.5813 18.687L44.3646 18.687C44.6105 18.687 44.8118 18.8211 44.9068 19.0503C45.0018 19.2795 44.9571 19.5198 44.7782 19.6931L39.686 24.7854C39.5742 24.8972 39.5183 25.0369 39.5183 25.1934L39.5183 25.3499C39.5183 25.6686 39.7754 25.9313 40.0996 25.9313L42.0672 25.9313C42.2293 25.9313 42.3634 25.8754 42.4752 25.7636L50.368 17.8765C50.5915 17.6529 50.5915 17.2839 50.368 17.0604L42.4752 9.16764C42.3634 9.05584 42.2237 8.99994 42.0672 8.99994L40.0996 8.99994C39.781 8.99994 39.5183 9.26266 39.5183 9.58128L39.5183 9.74338C39.5183 9.90548 39.5742 10.0396 39.686 10.1514L44.7782 15.2381C44.9515 15.4114 45.0018 15.6517 44.9068 15.8809C44.8118 16.1101 44.6105 16.2443 44.3646 16.2443L22.5813 16.2443C22.2627 16.2443 22 16.5014 22 16.82L22 18.1112C22 18.4298 22.2571 18.687 22.5813 18.687Z" fill="#4A2A00"/>
<path fill-rule="evenodd" clip-rule="evenodd" d="M22.5813 18.6871L44.3646 18.6871C44.6105 18.6871 44.8118 18.8212 44.9068 19.0504C45.0018 19.2796 44.9571 19.52 44.7782 19.6932L39.686 24.7855C39.5742 24.8973 39.5183 25.037 39.5183 25.1936L39.5183 25.3501C39.5183 25.6687 39.7754 25.9314 40.0996 25.9314L42.0672 25.9314C42.2293 25.9314 42.3634 25.8755 42.4752 25.7637L50.368 17.8766C50.5915 17.653 50.5915 17.2841 50.368 17.0605L42.4752 9.16776C42.3634 9.05596 42.2237 9.00007 42.0672 9.00007L40.0996 9.00007C39.781 9.00007 39.5183 9.26278 39.5183 9.5814L39.5183 9.7435C39.5183 9.9056 39.5742 10.0398 39.686 10.1516L44.7782 15.2382C44.9515 15.4115 45.0018 15.6519 44.9068 15.881C44.8118 16.1102 44.6105 16.2444 44.3646 16.2444L22.5813 16.2444C22.2627 16.2444 22 16.5015 22 16.8201L22 18.1113C22 18.43 22.2571 18.6871 22.5813 18.6871Z" fill="#8A4E0C"/>
</svg>
