<svg width="40" height="40" viewBox="0 0 40 40" fill="none" xmlns="http://www.w3.org/2000/svg">
<rect x="1" y="1" width="38" height="38" rx="19" fill="#C937A7"/>
<rect x="1" y="1" width="38" height="38" rx="19" stroke="#FEFEFE" stroke-width="2"/>
<g clip-path="url(#clip0_118_1232)">
<path d="M20.0007 10.4C17.3939 10.4 17.0663 10.4115 16.0423 10.4576C15.0208 10.5056 14.3232 10.6675 13.7127 10.905C13.0718 11.1457 12.4912 11.5236 12.0115 12.0122C11.5234 12.4917 11.1456 13.0717 10.9043 13.712C10.665 14.3219 10.5031 15.0195 10.4576 16.041C10.4128 17.0656 10.4 17.3933 10.4 20C10.4 22.6067 10.4115 22.9331 10.4576 23.9571C10.505 24.9792 10.6669 25.6768 10.9043 26.2874C11.1453 26.928 11.5232 27.5083 12.0115 27.9878C12.4908 28.4765 13.0709 28.8545 13.7114 29.0957C14.3219 29.3331 15.0202 29.495 16.0416 29.5418C17.0656 29.5885 17.3927 29.6 19.9994 29.6C22.6074 29.6 22.9331 29.5885 23.9571 29.5424C24.9792 29.495 25.6781 29.3331 26.2887 29.0957C26.9289 28.8547 27.5088 28.4769 27.9879 27.9885C28.4763 27.5086 28.8544 26.9281 29.0957 26.2874C29.3325 25.6768 29.4938 24.9792 29.5418 23.9578C29.5879 22.9338 29.6 22.6074 29.6 20C29.6 17.3926 29.5879 17.0656 29.5424 16.0416C29.4938 15.0195 29.3319 14.3219 29.0957 13.712C28.8546 13.0713 28.4768 12.4907 27.9885 12.0109C27.5092 11.5222 26.9288 11.1443 26.288 10.9037C25.6762 10.6669 24.9779 10.505 23.9559 10.4582C22.9319 10.4115 22.6055 10.4 19.9981 10.4H20H20.0007ZM19.1399 12.1299H20C22.5632 12.1299 22.8672 12.1389 23.8797 12.185C24.8154 12.2278 25.3235 12.3846 25.6621 12.5158C26.1101 12.6899 26.4295 12.8979 26.7655 13.2339C27.1008 13.5699 27.3095 13.8899 27.4835 14.3379C27.6147 14.6758 27.7715 15.184 27.8144 16.1197C27.8605 17.1315 27.8701 17.4355 27.8701 19.9981C27.8701 22.56 27.8605 22.864 27.8144 23.8758C27.7715 24.8115 27.6147 25.3197 27.4835 25.6576C27.3297 26.0743 27.0843 26.4511 26.7655 26.7603C26.456 27.0792 26.079 27.3246 25.6621 27.4784C25.3242 27.6109 24.8154 27.7664 23.8797 27.8093C22.8679 27.8554 22.5632 27.8656 20 27.8656C17.4368 27.8656 17.1328 27.8554 16.1216 27.8093C15.1853 27.7664 14.6771 27.6096 14.3386 27.4784C13.8906 27.3043 13.5706 27.0963 13.2346 26.7603C12.9156 26.4508 12.67 26.0738 12.5159 25.657C12.3847 25.319 12.2279 24.8109 12.1856 23.8752C12.1395 22.8627 12.1299 22.5587 12.1299 19.9955C12.1299 17.4317 12.1395 17.1296 12.1856 16.1171C12.2285 15.1814 12.384 14.6733 12.5159 14.3347C12.6899 13.8867 12.8986 13.5667 13.2346 13.2307C13.5444 12.912 13.9216 12.6666 14.3386 12.5126C14.6771 12.3808 15.1853 12.2246 16.121 12.1818C17.0067 12.1414 17.3498 12.1299 19.1392 12.1274V12.1299H19.1399ZM25.1251 13.7235C24.9738 13.7235 24.8239 13.7533 24.684 13.8113C24.5442 13.8692 24.4171 13.9541 24.3101 14.0611C24.2031 14.1681 24.1182 14.2952 24.0602 14.4351C24.0023 14.5749 23.9725 14.7248 23.9725 14.8762C23.9725 15.0275 24.0023 15.1774 24.0602 15.3173C24.1182 15.4571 24.2031 15.5842 24.3101 15.6912C24.4171 15.7982 24.5442 15.8831 24.684 15.9411C24.8239 15.999 24.9738 16.0288 25.1251 16.0288C25.4308 16.0288 25.724 15.9074 25.9402 15.6912C26.1563 15.475 26.2778 15.1819 26.2778 14.8762C26.2778 14.5705 26.1563 14.2773 25.9402 14.0611C25.724 13.845 25.4308 13.7235 25.1251 13.7235ZM20.0007 15.0701C18.6931 15.0701 17.4391 15.5895 16.5145 16.5141C15.5899 17.4387 15.0704 18.6927 15.0704 20.0003C15.0704 21.3079 15.5899 22.5619 16.5145 23.4865C17.4391 24.4111 18.6931 24.9306 20.0007 24.9306C21.3082 24.9306 22.5623 24.4111 23.4869 23.4865C24.4115 22.5619 24.9309 21.3079 24.9309 20.0003C24.9309 18.6927 24.4115 17.4387 23.4869 16.5141C22.5623 15.5895 21.3082 15.0701 20.0007 15.0701ZM20.0007 16.8C20.8494 16.8 21.6633 17.1371 22.2634 17.7373C22.8635 18.3374 23.2007 19.1513 23.2007 20C23.2007 20.8487 22.8635 21.6626 22.2634 22.2627C21.6633 22.8629 20.8494 23.2 20.0007 23.2C19.152 23.2 18.338 22.8629 17.7379 22.2627C17.1378 21.6626 16.8007 20.8487 16.8007 20C16.8007 19.1513 17.1378 18.3374 17.7379 17.7373C18.338 17.1371 19.152 16.8 20.0007 16.8Z" fill="white"/>
</g>
<defs>
<clipPath id="clip0_118_1232">
<rect width="19.2" height="19.2" fill="white" transform="translate(10.4 10.4)"/>
</clipPath>
</defs>
</svg>
