<svg width="40" height="40" viewBox="0 0 40 40" fill="none" xmlns="http://www.w3.org/2000/svg">
<rect x="1" y="1" width="38" height="38" rx="19" fill="#29ABEE"/>
<rect x="1" y="1" width="38" height="38" rx="19" stroke="white" stroke-width="2"/>
<path fill-rule="evenodd" clip-rule="evenodd" d="M11.7147 18.9008C16.8678 16.6501 20.2976 15.1541 22.0203 14.4288C26.9232 12.3701 27.9536 12.0149 28.616 12C28.7632 12 29.0875 12.0298 29.3083 12.2074C29.4843 12.3552 29.5291 12.5477 29.5584 12.696C29.5878 12.8442 29.6171 13.1546 29.5878 13.392C29.3227 16.2053 28.1744 23.032 27.5856 26.1717C27.335 27.504 26.8496 27.9488 26.3782 27.993C25.3478 28.0816 24.5675 27.312 23.5808 26.6597C22.0203 25.6384 21.152 25.0016 19.6352 23.9946C17.8832 22.8394 19.0166 22.2026 20.0182 21.1664C20.2832 20.8997 24.8032 16.7536 24.8912 16.3834C24.9062 16.3386 24.9062 16.161 24.8032 16.0725C24.6998 15.9834 24.5526 16.0128 24.4352 16.0426C24.2731 16.0725 21.7995 17.7306 16.9851 21.0032C16.2784 21.4922 15.6454 21.729 15.0715 21.7141C14.4384 21.6992 13.2315 21.3589 12.3184 21.0629C11.2144 20.7072 10.3307 20.5146 10.4043 19.8928C10.4486 19.5674 10.8902 19.241 11.7147 18.9008Z" fill="white"/>
</svg>
