<svg width="40" height="40" viewBox="0 0 40 40" fill="none" xmlns="http://www.w3.org/2000/svg">
<rect x="1" y="1" width="38" height="38" rx="19" fill="#FF0000"/>
<rect x="1" y="1" width="38" height="38" rx="19" stroke="#FEFEFE" stroke-width="2"/>
<path fill-rule="evenodd" clip-rule="evenodd" d="M27.5844 13.8065C28.4205 14.0235 29.0771 14.6607 29.3011 15.4705C29.7046 16.9376 29.7067 20 29.7067 20C29.7067 20 29.7067 23.0625 29.3011 24.5296C29.0771 25.3394 28.4205 25.9765 27.5844 26.1936C26.0708 26.5867 20 26.5867 20 26.5867C20 26.5867 13.9292 26.5867 12.4149 26.1936C11.5795 25.9765 10.9229 25.3394 10.6989 24.5296C10.2933 23.0625 10.2933 20 10.2933 20C10.2933 20 10.2933 16.9376 10.6989 15.4705C10.9229 14.6607 11.5795 14.0235 12.4156 13.8065C13.9292 13.4133 20 13.4133 20 13.4133C20 13.4133 26.0708 13.4133 27.5844 13.8065ZM23.0999 20L18.0566 22.8226V17.1781L23.0999 20Z" fill="white"/>
</svg>
